<?xml version="1.0" standalone="no"?>
<!DOCTYPE svg PUBLIC "-//W3C//DTD SVG 20010904//EN"
 "http://www.w3.org/TR/2001/REC-SVG-20010904/DTD/svg10.dtd">
<svg version="1.0" xmlns="http://www.w3.org/2000/svg"
 width="100.000000pt" height="100.000000pt" viewBox="0 0 100.000000 100.000000"
 preserveAspectRatio="xMidYMid meet">
<metadata>
Created by potrace 1.11, written by Peter Selinger 2001-2013
</metadata>
<g transform="translate(0.000000,100.000000) scale(0.100000,-0.100000)"
fill="#000000" stroke="none">
<path d="M245 781 c-7 -12 -7 -33 -1 -216 2 -66 5 -161 5 -212 l1 -91 48 -17
c102 -36 94 -37 167 11 37 24 68 44 70 44 2 0 5 -14 7 -32 3 -26 9 -33 43 -45
26 -9 41 -10 43 -3 2 5 7 8 11 6 4 -3 27 8 51 24 l43 28 3 130 4 129 -33 1
c-17 0 -51 0 -74 1 l-43 1 0 120 c0 66 -1 120 -2 121 -2 0 -78 3 -169 6 -118
3 -169 2 -174 -6z"/>
</g>
</svg>
