<svg version="1" xmlns="http://www.w3.org/2000/svg" width="341.333" height="341.333" viewBox="0 0 256.000000 256.000000"><path d="M104 18.4c-6.9 2.3-13.1 4.5-13.7 4.9-.7.5-1.3.6-1.3.2 0-.3-1.3.1-3 1-1.6.8-3.2 1.5-3.5 1.4-.3 0-3.8 1-7.8 2.2-3.9 1.3-7.4 2.4-7.7 2.4-.3.1-1.2.4-2 .8-.8.3-4.4 1.5-8 2.6C43.2 38.3 20.5 46 21.4 46c.6 0 .1.6-.9 1.4-1.9 1.4-2 3.7-2 79 0 46.4.4 77.6.9 77.6s.7.3.3.6c-1.4 1.4 2.8 3.4 20.3 9.3 10.2 3.4 19.2 6.4 20 6.6.8.3 6.7 2.2 13 4.5 6.3 2.2 12.8 4.2 14.4 4.4 1.5.2 6.7-1 11.5-2.6 9.6-3.3 9.4-3.3 13.9-4.3 1.7-.4 3.2-1.2 3.2-1.8 0-.6.3-.8.6-.5.3.4 4.9-.9 10.3-2.7l9.7-3.2-.1 8.3c-.1 4.6.1 8.2.3 7.9.3-.3 1.4.3 2.5 1.2 1.5 1.3 1.8 1.4 1.2.3-.5-.9 0-.8 1.3.4 1.2 1.1 2.2 1.6 2.2 1.1 0-.4.7-.2 1.5.5s1.5 1 1.5.6c0-.3 1.7.1 3.8 1 2 .9 4.4 1.7 5.2 1.9.8.2 1.6.4 1.8.5.1.2.7.4 1.2.5.6.1 1.2.4 1.5.5.3.1 1 .4 1.5.5.6.1 1.2.4 1.5.5.3.1.8.3 1.3.4.4.1 1.8.8 3.1 1.5 1.9 1.1 2.2 1.1 1.5-.1-.4-.7.3-.4 1.6.7 1.4 1.2 2 1.4 1.5.5-.5-.9.1-.7 1.5.5s2 1.4 1.5.5c-.7-1.2-.6-1.3.6-.4.8.6 2.3 1 3.4.9 1.8-.3 43-14 54.2-18.1l4.2-1.5V128l-3.7-1.6c-2-.8-4.6-1.7-5.7-1.8-1.1-.2-3.3-.9-5-1.5-7.6-3.1-14.7-5.1-15.7-4.5-.6.4-.8.3-.5-.3.9-1.5-11.2-4.6-12.7-3.3-.7.5-1.6.7-1.9.3-.4-.3-.7-.2-.7.4 0 .5-1 .9-2.2.8l-2.3-.2-.1-37.4c-.2-41.8-.1-39.9-1.3-41.7-.6-1.1-14.4-6.4-20.1-7.8-2.5-.6-26.4-8.5-28.5-9.4-4.1-1.8-18.1-6-19.5-5.9-.8 0-7.1 2-14 4.3z"/></svg>