<?xml version="1.0" standalone="no"?>
<!DOCTYPE svg PUBLIC "-//W3C//DTD SVG 20010904//EN"
 "http://www.w3.org/TR/2001/REC-SVG-20010904/DTD/svg10.dtd">
<svg version="1.0" xmlns="http://www.w3.org/2000/svg"
 width="100.000000pt" height="100.000000pt" viewBox="0 0 100.000000 100.000000"
 preserveAspectRatio="xMidYMid meet">
<metadata>
Created by potrace 1.11, written by Peter Selinger 2001-2013
</metadata>
<g transform="translate(0.000000,100.000000) scale(0.100000,-0.100000)"
fill="#000000" stroke="none">
<path d="M255 760 c3 -5 24 -10 45 -10 21 0 42 5 45 10 4 6 -13 10 -45 10 -32
0 -49 -4 -45 -10z"/>
<path d="M523 756 c3 -8 9 -31 13 -50 6 -37 23 -49 25 -18 0 15 1 15 8 -2 10
-25 22 -7 16 24 -5 28 -15 39 -15 17 0 -28 -18 -19 -25 13 -4 17 -11 30 -17
30 -6 0 -8 -6 -5 -14z"/>
<path d="M461 740 c0 -8 6 -26 15 -40 l15 -25 -7 25 c-3 14 -10 32 -15 40 -7
13 -8 13 -8 0z"/>
<path d="M293 663 c15 -2 37 -2 50 0 12 2 0 4 -28 4 -27 0 -38 -2 -22 -4z"/>
<path d="M383 615 c0 -33 2 -45 4 -27 2 18 2 45 0 60 -2 15 -4 0 -4 -33z"/>
<path d="M335 641 c-3 -5 -22 -8 -43 -5 -31 3 -33 2 -12 -5 14 -5 41 -9 60 -9
19 0 27 2 17 5 -9 2 -15 9 -12 14 4 5 4 9 1 9 -3 0 -7 -4 -11 -9z"/>
<path d="M293 593 c15 -2 39 -2 55 0 15 2 2 4 -28 4 -30 0 -43 -2 -27 -4z"/>
<path d="M293 563 c15 -2 39 -2 55 0 15 2 2 4 -28 4 -30 0 -43 -2 -27 -4z"/>
<path d="M563 523 c9 -2 23 -2 30 0 6 3 -1 5 -18 5 -16 0 -22 -2 -12 -5z"/>
<path d="M706 505 c9 -48 24 -54 24 -9 0 26 -3 34 -9 25 -7 -11 -10 -11 -15 0
-3 8 -4 1 0 -16z"/>
<path d="M280 511 c14 -5 42 -9 63 -10 20 -1 37 -5 37 -11 0 -6 -25 -8 -62 -5
-44 3 -55 2 -38 -4 14 -5 41 -9 61 -10 34 -1 37 -3 41 -36 3 -30 1 -36 -18
-41 -13 -3 -44 -1 -69 4 -26 6 -43 6 -38 1 5 -5 33 -12 63 -17 50 -8 53 -9 26
-17 -16 -4 -43 -3 -62 3 -19 5 -34 7 -34 2 0 -8 101 -29 132 -27 14 0 16 12
15 84 -2 77 -3 83 -23 83 -12 0 -43 2 -70 5 -36 3 -42 2 -24 -4z m105 -151
c-3 -5 -14 -10 -23 -10 -15 0 -15 2 -2 10 20 13 33 13 25 0z"/>
<path d="M660 508 c0 -9 5 -20 10 -23 13 -8 13 5 0 25 -8 13 -10 13 -10 -2z"/>
<path d="M583 463 c4 -3 2 -12 -4 -20 -6 -7 -8 -13 -3 -14 5 0 0 -4 -11 -9
-15 -7 -10 -9 23 -9 40 -1 42 0 42 29 0 26 -4 30 -27 30 -14 0 -23 -3 -20 -7z
m33 -29 c1 -9 0 -13 -4 -10 -3 4 -7 14 -8 22 -1 9 0 13 4 10 3 -4 7 -14 8 -22z"/>
<path d="M270 450 c14 -4 43 -8 65 -8 l40 0 -40 9 c-22 4 -51 8 -65 7 l-25 0
25 -8z"/>
<path d="M257 429 c5 -5 34 -12 64 -14 64 -6 55 0 -19 13 -32 6 -50 6 -45 1z"/>
<path d="M565 381 l20 -8 -20 -5 c-14 -4 -10 -6 13 -7 37 -1 43 14 10 23 -32
8 -47 6 -23 -3z"/>
<path d="M505 370 c-3 -6 1 -7 9 -4 18 7 21 14 7 14 -6 0 -13 -4 -16 -10z"/>
<path d="M623 335 c0 -27 2 -38 4 -22 2 15 2 37 0 50 -2 12 -4 0 -4 -28z"/>
<path d="M250 311 c0 -22 5 -43 12 -47 7 -5 8 -3 3 6 -6 9 -2 10 16 5 41 -13
93 -24 97 -20 2 2 -16 9 -39 15 -73 19 -79 21 -79 30 0 4 18 3 41 -3 25 -6 44
-6 48 -1 3 5 17 15 31 22 14 7 18 11 9 8 -15 -4 -75 6 -121 20 -15 4 -18 -1
-18 -35z m92 -3 c-9 -9 -82 9 -82 21 0 4 20 3 45 -3 24 -6 41 -14 37 -18z"/>
<path d="M550 340 c-12 -8 -12 -10 5 -10 13 0 7 -7 -20 -20 -22 -11 -53 -31
-70 -46 -24 -20 -20 -19 18 6 26 17 67 37 90 45 25 8 34 14 22 15 l-20 1 20 9
c18 8 18 9 -5 9 -14 0 -32 -4 -40 -9z"/>
<path d="M561 299 c-13 -5 -22 -12 -19 -15 3 -3 21 2 39 10 37 16 19 21 -20 5z"/>
<path d="M392 260 c0 -19 2 -27 5 -17 2 9 2 25 0 35 -3 9 -5 1 -5 -18z"/>
<path d="M567 277 c-30 -12 -31 -30 -1 -36 10 -2 22 -8 25 -13 4 -7 9 -6 13 1
4 6 1 11 -6 11 -10 0 -9 3 2 11 11 8 6 9 -20 4 l-35 -6 33 15 c51 24 43 34
-11 13z"/>
</g>
</svg>
